<svg xmlns="http://www.w3.org/2000/svg" height="1000" width="1000"><defs><clipPath id="a" clipPathUnits="userSpaceOnUse"><path d="M94.323 439.739h65.886v-28.492H94.323v28.492z"/></clipPath><clipPath id="b" clipPathUnits="userSpaceOnUse"><path d="M112.522 471.642h47.687v-45.548h-47.687v45.548z"/></clipPath><clipPath id="c" clipPathUnits="userSpaceOnUse"><path d="M144.889 492.015h28.499v-65.866h-28.499v65.866z"/></clipPath><clipPath id="d" clipPathUnits="userSpaceOnUse"><path d="M160.127 474.411h44.978v-48.262h-44.978v48.262z"/></clipPath><clipPath id="e" clipPathUnits="userSpaceOnUse"><path d="M160.209 441.892h65.836v-28.515h-65.836v28.515z"/></clipPath><clipPath id="f" clipPathUnits="userSpaceOnUse"><path d="M169.197 397.667h17.994v-7.781h-17.994v7.781z"/></clipPath><clipPath id="g" clipPathUnits="userSpaceOnUse"><path d="M174.167 406.381h13.024V393.94h-13.024v12.441z"/></clipPath><clipPath id="h" clipPathUnits="userSpaceOnUse"><path d="M183.007 411.945h7.783v-17.99h-7.783v17.99z"/></clipPath><clipPath id="i" clipPathUnits="userSpaceOnUse"><path d="M187.169 407.138h12.283v-13.183h-12.283v13.183z"/></clipPath><clipPath id="j" clipPathUnits="userSpaceOnUse"><path d="M187.191 398.256h17.98v-7.788h-17.98v7.788z"/></clipPath><clipPath id="k" clipPathUnits="userSpaceOnUse"><path d="M358.421 500.281h141.41V358.872h-141.41v141.409z"/></clipPath></defs><g transform="matrix(1.25 0 0 -1.25 0 1000)"><path fill="#fff" fill-rule="evenodd" d="M-1119.386 843.734h1006.728V-62.322h-1006.728z"/><ellipse ry="75.505" rx="246.888" transform="scale(1 -1)" cy="-149.811" cx="400.294" fill="#042e4b" fill-rule="evenodd"/><g clip-path="url(#a)" opacity=".7" transform="translate(-240.914 -1247.47) scale(3.91304)" fill="#0f7887"><path d="M160.21 426.149s-28.184-32.753-65.887-1.143c0 0 29.706 32.372 65.886 1.143"/></g><g clip-path="url(#b)" opacity=".7" transform="translate(-240.914 -1247.47) scale(3.91304)" fill="#0aaf91"><path d="M160.21 426.149s-43.067-3.506-47.688 45.478c0 0 43.882 2.165 47.687-45.478"/></g><g clip-path="url(#c)" opacity=".7" transform="translate(-240.914 -1247.47) scale(3.91304)"><path d="M160.21 426.149s-33.11 27.763-1.982 65.866c0 0 32.747-29.291 1.981-65.866" fill="#d9e021"/></g><g clip-path="url(#d)" opacity=".7" transform="translate(-240.914 -1247.47) scale(3.91304)" fill="#0aaf91"><path d="M160.21 426.149s-4.056 43.018 44.866 48.262c0 0 2.723-43.851-44.867-48.262"/></g><g clip-path="url(#e)" opacity=".7" transform="translate(-240.914 -1247.47) scale(3.91304)" fill="#0f7887"><path d="M160.21 426.149s27.337 33.46 65.834 2.82c0 0-28.872-33.118-65.835-2.82"/></g><path d="M425.171 207.226s-22.703 101.724-6.906 162.865c15.809 61.157 39.42 73.651 37.275 83.062-2.148 9.403-14.051 5.193-17.976-3.408-3.94-8.593-19.734-27.012-33.903-23.756-14.177 3.236-17.021 61.72-27.34 67.73-10.303 6.011-7.141-21.04-3.49-44.514 3.654-23.47-16.056-10.12-28.022 18.164-11.962 28.268-19.35 20.168-20.802 16.22-1.447-3.948 26.417-54.505 24.253-56.868-2.156-2.36-37.404 39.772-40.91 38.637-3.514-1.135-9.517-4.308-1.159-17.542 8.366-13.219 34.952-35.644 33.187-39.291-1.784-3.651-23.752 16.736-31.872 17.342-8.12.595-5.02-10.917 9.388-21.6 14.411-10.686 49.906-22.687 50.407-62.139.474-39.49-8.589-134.902-8.589-134.902h66.46z" fill="#042e4b"/><g clip-path="url(#f)" opacity=".7" transform="translate(-240.914 -1247.47) scale(3.91304)" fill="#107887"><path d="M187.191 393.955s-7.698-8.944-17.995-.31c0 0 8.113 8.84 17.995.31"/></g><g clip-path="url(#g)" opacity=".7" transform="translate(-240.914 -1247.47) scale(3.91304)" fill="#0aaf91"><path d="M187.191 393.955s-11.763-.957-13.025 12.422c0 0 11.985.59 13.025-12.422"/></g><g clip-path="url(#h)" opacity=".7" transform="translate(-240.914 -1247.47) scale(3.91304)"><path d="M187.191 393.955s-9.043 7.584-.542 17.99c0 0 8.944-8 .542-17.99" fill="#d9e021"/></g><g clip-path="url(#i)" opacity=".7" transform="translate(-240.914 -1247.47) scale(3.91304)" fill="#0aaf91"><path d="M187.191 393.955s-1.108 11.75 12.253 13.183c0 0 .744-11.978-12.253-13.183"/></g><g clip-path="url(#j)" opacity=".7" transform="translate(-240.914 -1247.47) scale(3.91304)" fill="#107887"><path d="M187.191 393.955s7.466 9.14 17.98.772c0 0-7.886-9.045-17.98-.772"/></g><path d="M511.296 199.4s-9.446 42.316-2.872 67.747c6.574 25.438 16.396 30.647 15.507 34.56-.896 3.913-5.85 2.16-7.481-1.42-1.64-3.57-8.21-11.235-14.103-9.885-5.897 1.35-7.082 25.681-11.375 28.178-4.285 2.504-2.966-8.75-1.452-18.513 1.522-9.767-6.675-4.218-11.653 7.548-4.977 11.763-8.049 8.394-8.652 6.75-.606-1.64 10.988-22.676 10.088-23.654-.9-.982-15.558 16.54-17.022 16.067-1.46-.47-3.96-1.796-.48-7.294 3.482-5.502 14.54-14.83 13.804-16.345-.743-1.518-9.88 6.965-13.257 7.212-3.377.246-2.086-4.535 3.905-8.98 5.995-4.446 20.759-9.439 20.966-25.85.2-16.427-3.572-56.12-3.572-56.12h27.65z" fill="#042e4b"/><text transform="scale(1.0232 -.97732)" y="-119.711" x="292.153" style="line-height:125%;-inkscape-font-specification:Cinzel" font-weight="400" font-size="89.461" font-family="Cinzel" letter-spacing="0" word-spacing="0" fill="#fff" fill-opacity=".91"><tspan style="-inkscape-font-specification:'Cinzel Bold'" y="-119.711" x="292.153" font-weight="700">CBF</tspan></text><g clip-path="url(#k)" transform="matrix(5.09158 0 0 5.09164 -1788.974 -1793.69)" fill="#5eb9db"><path d="M429.126 367.852c-34.09 0-61.726 27.635-61.726 61.725s27.636 61.726 61.726 61.726 61.727-27.636 61.727-61.726-27.637-61.725-61.727-61.725m0 132.43c-39.049 0-70.705-31.656-70.705-70.705 0-39.05 31.656-70.704 70.705-70.704s70.705 31.655 70.705 70.704c0 39.049-31.656 70.705-70.705 70.705" fill-rule="evenodd"/></g></g></svg>