<?xml version="1.0" encoding="UTF-8" standalone="no"?>
<svg
   xmlns:dc="http://purl.org/dc/elements/1.1/"
   xmlns:cc="http://creativecommons.org/ns#"
   xmlns:rdf="http://www.w3.org/1999/02/22-rdf-syntax-ns#"
   xmlns:svg="http://www.w3.org/2000/svg"
   xmlns="http://www.w3.org/2000/svg"
   xmlns:sodipodi="http://sodipodi.sourceforge.net/DTD/sodipodi-0.dtd"
   xmlns:inkscape="http://www.inkscape.org/namespaces/inkscape"
   viewBox="0 0 1000 1000"
   height="1000"
   width="1000"
   xml:space="preserve"
   version="1.1"
   id="svg2"
   inkscape:version="0.91 r13725"
   sodipodi:docname="Logo-cbf.svg"><sodipodi:namedview
     pagecolor="#ffffff"
     bordercolor="#666666"
     borderopacity="1"
     objecttolerance="10"
     gridtolerance="10"
     guidetolerance="10"
     inkscape:pageopacity="0"
     inkscape:pageshadow="2"
     inkscape:window-width="1366"
     inkscape:window-height="710"
     id="namedview155"
     showgrid="false"
     inkscape:zoom="0.3337544"
     inkscape:cx="347.58733"
     inkscape:cy="455.7656"
     inkscape:window-x="0"
     inkscape:window-y="0"
     inkscape:window-maximized="1"
     inkscape:current-layer="g10" /><metadata
     id="metadata8"><rdf:RDF><cc:Work
         rdf:about=""><dc:format>image/svg+xml</dc:format><dc:type
           rdf:resource="http://purl.org/dc/dcmitype/StillImage" /><dc:title /></cc:Work></rdf:RDF></metadata><defs
     id="defs6"><linearGradient
       id="linearGradient4392"><stop
         id="stop4394"
         offset="0"
         style="stop-color:#000000;stop-opacity:0;" /></linearGradient><clipPath
       id="clipPath18"
       clipPathUnits="userSpaceOnUse"><path
         id="path20"
         d="M 0,800 800,800 800,0 0,0 0,800 Z" /></clipPath><clipPath
       id="clipPath210"
       clipPathUnits="userSpaceOnUse"><path
         id="path212"
         d="m 119.37,685.063 72.372,0 0,-72.372 -72.372,0 0,72.372 z" /></clipPath><clipPath
       id="clipPath226"
       clipPathUnits="userSpaceOnUse"><path
         id="path228"
         d="m 153.128,654.306 50.856,0 0,-50.857 -50.856,0 0,50.857 z" /></clipPath><clipPath
       id="clipPath242"
       clipPathUnits="userSpaceOnUse"><path
         id="path244"
         d="m 116.93,633.504 33.253,0 0,-33.253 -33.253,0 0,33.253 z" /></clipPath><clipPath
       id="clipPath262"
       clipPathUnits="userSpaceOnUse"><path
         id="path264"
         d="m 380.759,681.601 85.643,0 0,-85.644 -85.643,0 0,85.644 z" /></clipPath><clipPath
       id="clipPath278"
       clipPathUnits="userSpaceOnUse"><path
         id="path280"
         d="m 420.707,645.203 60.182,0 0,-60.183 -60.182,0 0,60.183 z" /></clipPath><clipPath
       id="clipPath294"
       clipPathUnits="userSpaceOnUse"><path
         id="path296"
         d="m 384.971,620.586 39.351,0 0,-39.351 -39.351,0 0,39.351 z" /></clipPath><clipPath
       id="clipPath314"
       clipPathUnits="userSpaceOnUse"><path
         id="path316"
         d="m 358.421,697.725 141.41,0 0,-141.41 -141.41,0 0,141.41 z" /></clipPath><clipPath
       id="clipPath330"
       clipPathUnits="userSpaceOnUse"><path
         id="path332"
         d="m 94.3232,439.739 65.8858,0 0,-28.492 -65.8858,0 0,28.492 z" /></clipPath><clipPath
       id="clipPath346"
       clipPathUnits="userSpaceOnUse"><path
         id="path348"
         d="m 112.522,471.642 47.687,0 0,-45.548 -47.687,0 0,45.548 z" /></clipPath><clipPath
       id="clipPath362"
       clipPathUnits="userSpaceOnUse"><path
         id="path364"
         d="m 144.889,492.015 28.499,0 0,-65.866 -28.499,0 0,65.866 z" /></clipPath><clipPath
       id="clipPath378"
       clipPathUnits="userSpaceOnUse"><path
         id="path380"
         d="m 160.127,474.411 44.978,0 0,-48.262 -44.978,0 0,48.262 z" /></clipPath><clipPath
       id="clipPath394"
       clipPathUnits="userSpaceOnUse"><path
         id="path396"
         d="m 160.209,441.892 65.836,0 0,-28.515 -65.836,0 0,28.515 z" /></clipPath><clipPath
       id="clipPath410"
       clipPathUnits="userSpaceOnUse"><path
         id="path412"
         d="m 169.197,397.667 17.994,0 0,-7.781 -17.994,0 0,7.781 z" /></clipPath><clipPath
       id="clipPath426"
       clipPathUnits="userSpaceOnUse"><path
         id="path428"
         d="m 174.167,406.381 13.024,0 0,-12.441 -13.024,0 0,12.441 z" /></clipPath><clipPath
       id="clipPath442"
       clipPathUnits="userSpaceOnUse"><path
         id="path444"
         d="m 183.007,411.945 7.783,0 0,-17.99 -7.783,0 0,17.99 z" /></clipPath><clipPath
       id="clipPath458"
       clipPathUnits="userSpaceOnUse"><path
         id="path460"
         d="m 187.169,407.138 12.283,0 0,-13.183 -12.283,0 0,13.183 z" /></clipPath><clipPath
       id="clipPath474"
       clipPathUnits="userSpaceOnUse"><path
         id="path476"
         d="m 187.191,398.256 17.98,0 0,-7.788 -17.98,0 0,7.788 z" /></clipPath><clipPath
       id="clipPath502"
       clipPathUnits="userSpaceOnUse"><path
         id="path504"
         d="m 367.342,438.682 60.804,0 0,-26.293 -60.804,0 0,26.293 z" /></clipPath><clipPath
       id="clipPath518"
       clipPathUnits="userSpaceOnUse"><path
         id="path520"
         d="m 384.138,468.124 44.008,0 0,-42.034 -44.008,0 0,42.034 z" /></clipPath><clipPath
       id="clipPath534"
       clipPathUnits="userSpaceOnUse"><path
         id="path536"
         d="m 414.007,486.925 26.301,0 0,-60.784 -26.301,0 0,60.784 z" /></clipPath><clipPath
       id="clipPath550"
       clipPathUnits="userSpaceOnUse"><path
         id="path552"
         d="m 428.07,470.679 41.508,0 0,-44.538 -41.508,0 0,44.538 z" /></clipPath><clipPath
       id="clipPath566"
       clipPathUnits="userSpaceOnUse"><path
         id="path568"
         d="m 428.146,440.669 60.756,0 0,-26.315 -60.756,0 0,26.315 z" /></clipPath><clipPath
       id="clipPath582"
       clipPathUnits="userSpaceOnUse"><path
         id="path584"
         d="m 428.146,426.248 45.062,0 0,-40.988 -45.062,0 0,40.988 z" /></clipPath><clipPath
       id="clipPath598"
       clipPathUnits="userSpaceOnUse"><path
         id="path600"
         d="m 416.73,426.141 26.337,0 0,-60.72 -26.337,0 0,60.72 z" /></clipPath><clipPath
       id="clipPath614"
       clipPathUnits="userSpaceOnUse"><path
         id="path616"
         d="m 387.818,426.141 40.472,0 0,-45.579 -40.472,0 0,45.579 z" /></clipPath><clipPath
       id="clipPath634"
       clipPathUnits="userSpaceOnUse"><path
         id="path636"
         d="m 358.421,500.281 141.41,0 0,-141.409 -141.41,0 0,141.409 z" /></clipPath><clipPath
       id="clipPath790"
       clipPathUnits="userSpaceOnUse"><path
         id="path792"
         d="M 0,0 800,0 800,130 0,130 0,0 Z" /></clipPath><linearGradient
       id="linearGradient798"
       spreadMethod="pad"
       gradientTransform="matrix(800,0,0,-800,0,65)"
       gradientUnits="userSpaceOnUse"
       y2="0"
       x2="1"
       y1="0"
       x1="0"><stop
         id="stop800"
         offset="0"
         style="stop-opacity:1;stop-color:#37b34a" /><stop
         id="stop802"
         offset="0.151825"
         style="stop-opacity:1;stop-color:#8bc53f" /><stop
         id="stop804"
         offset="0.659683"
         style="stop-opacity:1;stop-color:#37b34a" /><stop
         id="stop806"
         offset="1"
         style="stop-opacity:1;stop-color:#009345" /></linearGradient><clipPath
       id="clipPath814"
       clipPathUnits="userSpaceOnUse"><path
         id="path816"
         d="M 0,800 800,800 800,0 0,0 0,800 Z" /></clipPath><clipPath
       id="clipPath410-7"
       clipPathUnits="userSpaceOnUse"><path
         id="path412-5"
         d="m 169.197,397.667 17.994,0 0,-7.781 -17.994,0 0,7.781 z" /></clipPath><clipPath
       id="clipPath426-3"
       clipPathUnits="userSpaceOnUse"><path
         id="path428-5"
         d="m 174.167,406.381 13.024,0 0,-12.441 -13.024,0 0,12.441 z" /></clipPath><clipPath
       id="clipPath442-6"
       clipPathUnits="userSpaceOnUse"><path
         id="path444-2"
         d="m 183.007,411.945 7.783,0 0,-17.99 -7.783,0 0,17.99 z" /></clipPath><clipPath
       id="clipPath458-9"
       clipPathUnits="userSpaceOnUse"><path
         id="path460-1"
         d="m 187.169,407.138 12.283,0 0,-13.183 -12.283,0 0,13.183 z" /></clipPath><clipPath
       id="clipPath474-2"
       clipPathUnits="userSpaceOnUse"><path
         id="path476-7"
         d="m 187.191,398.256 17.98,0 0,-7.788 -17.98,0 0,7.788 z" /></clipPath></defs><g
     transform="matrix(1.25,0,0,-1.25,0,1000)"
     id="g10"><ellipse
       ry="75.504631"
       rx="246.88817"
       transform="scale(1,-1)"
       cy="-149.81078"
       cx="400.29431"
       id="path4356"
       style="opacity:1;fill:#a06c2c;fill-opacity:1;fill-rule:evenodd;stroke:#320000;stroke-width:0;stroke-miterlimit:4;stroke-dasharray:none;stroke-opacity:1" /><g
       transform="translate(441.9766,358.38834)"
       id="g626" /><g
       transform="matrix(3.9130434,0,0,3.9130434,-240.91357,-1247.4708)"
       id="g326"><g
         id="g328" /><g
         id="g334"><g
           style="opacity:0.69999701"
           id="g336"
           clip-path="url(#clipPath330)"><g
             id="g338"
             transform="translate(160.2095,426.1489)"><path
               id="path340"
               style="fill:#39b54a;fill-opacity:1;fill-rule:nonzero;stroke:none"
               d="m 0,0 c 0,0 -28.183,-32.753 -65.886,-1.143 0,0 29.705,32.372 65.886,1.143" /></g></g></g></g><g
       transform="matrix(3.9130434,0,0,3.9130434,-240.91357,-1247.4708)"
       id="g342"><g
         id="g344" /><g
         id="g350"><g
           style="opacity:0.69999701"
           id="g352"
           clip-path="url(#clipPath346)"><g
             id="g354"
             transform="translate(160.2095,426.1489)"><path
               id="path356"
               style="fill:#8cc63f;fill-opacity:1;fill-rule:nonzero;stroke:none"
               d="m 0,0 c 0,0 -43.066,-3.506 -47.687,45.478 0,0 43.882,2.165 47.687,-45.478" /></g></g></g></g><g
       transform="matrix(3.9130434,0,0,3.9130434,-240.91357,-1247.4708)"
       id="g358"><g
         id="g360" /><g
         id="g366"><g
           style="opacity:0.69999701"
           id="g368"
           clip-path="url(#clipPath362)"><g
             id="g370"
             transform="translate(160.2095,426.1489)"><path
               id="path372"
               style="fill:#d9e021;fill-opacity:1;fill-rule:nonzero;stroke:none"
               d="M 0,0 C 0,0 -33.109,27.763 -1.981,65.866 -1.981,65.866 30.766,36.575 0,0" /></g></g></g></g><g
       transform="matrix(3.9130434,0,0,3.9130434,-240.91357,-1247.4708)"
       id="g374"><g
         id="g376" /><g
         id="g382"><g
           style="opacity:0.69999701"
           id="g384"
           clip-path="url(#clipPath378)"><g
             id="g386"
             transform="translate(160.2095,426.1489)"><path
               id="path388"
               style="fill:#8cc63f;fill-opacity:1;fill-rule:nonzero;stroke:none"
               d="M 0,0 C 0,0 -4.055,43.018 44.867,48.262 44.867,48.262 47.59,4.411 0,0" /></g></g></g></g><g
       transform="matrix(3.9130434,0,0,3.9130434,-240.91357,-1247.4708)"
       id="g390"><g
         id="g392" /><g
         id="g398"><g
           style="opacity:0.69999701"
           id="g400"
           clip-path="url(#clipPath394)"><g
             id="g402"
             transform="translate(160.2095,426.1489)"><path
               id="path404"
               style="fill:#39b54a;fill-opacity:1;fill-rule:nonzero;stroke:none"
               d="M 0,0 C 0,0 27.338,33.46 65.835,2.82 65.835,2.82 36.963,-30.298 0,0" /></g></g></g></g><g
       transform="matrix(3.9130434,0,0,3.9130434,425.17133,207.22617)"
       id="g486"
       style="fill:#a06c2c;fill-opacity:1"><path
         id="path488"
         style="fill:#a06c2c;fill-opacity:1;fill-rule:nonzero;stroke:none"
         d="M 0,0 C 0,0 -5.802,25.996 -1.765,41.621 2.275,57.25 8.309,60.443 7.761,62.848 7.212,65.251 4.17,64.175 3.167,61.977 2.16,59.781 -1.876,55.074 -5.497,55.906 c -3.623,0.827 -4.35,15.773 -6.987,17.309 -2.633,1.536 -1.825,-5.377 -0.892,-11.376 0.934,-5.998 -4.103,-2.586 -7.161,4.642 -3.057,7.224 -4.945,5.154 -5.316,4.145 -0.37,-1.009 6.751,-13.929 6.198,-14.533 -0.551,-0.603 -9.559,10.164 -10.455,9.874 -0.898,-0.29 -2.432,-1.101 -0.296,-4.483 2.138,-3.378 8.932,-9.109 8.481,-10.041 -0.456,-0.933 -6.07,4.277 -8.145,4.432 -2.075,0.152 -1.283,-2.79 2.399,-5.52 3.683,-2.731 12.754,-5.798 12.882,-15.88 C -14.668,24.383 -16.984,0 -16.984,0 L 0,0 Z" /></g><g
       id="g406"
       transform="matrix(3.9130434,0,0,3.9130434,-240.91357,-1247.4708)"><g
         id="g408" /><g
         id="g414"><g
           style="opacity:0.69999701"
           id="g416"
           clip-path="url(#clipPath410)"><g
             id="g418"
             transform="translate(187.1914,393.9551)"><path
               inkscape:connector-curvature="0"
               id="path420"
               style="fill:#39b54a;fill-opacity:1;fill-rule:nonzero;stroke:none"
               d="m 0,0 c 0,0 -7.698,-8.944 -17.995,-0.311 0,0 8.113,8.841 17.995,0.311" /></g></g></g></g><g
       id="g422"
       transform="matrix(3.9130434,0,0,3.9130434,-240.91357,-1247.4708)"><g
         id="g424" /><g
         id="g430"><g
           style="opacity:0.69999701"
           id="g432"
           clip-path="url(#clipPath426)"><g
             id="g434"
             transform="translate(187.1914,393.9551)"><path
               inkscape:connector-curvature="0"
               id="path436"
               style="fill:#8cc63f;fill-opacity:1;fill-rule:nonzero;stroke:none"
               d="m 0,0 c 0,0 -11.763,-0.957 -13.025,12.422 0,0 11.985,0.59 13.025,-12.422" /></g></g></g></g><g
       id="g438"
       transform="matrix(3.9130434,0,0,3.9130434,-240.91357,-1247.4708)"><g
         id="g440" /><g
         id="g446"><g
           style="opacity:0.69999701"
           id="g448"
           clip-path="url(#clipPath442)"><g
             id="g450"
             transform="translate(187.1914,393.9551)"><path
               inkscape:connector-curvature="0"
               id="path452"
               style="fill:#d9e021;fill-opacity:1;fill-rule:nonzero;stroke:none"
               d="M 0,0 C 0,0 -9.043,7.584 -0.542,17.99 -0.542,17.99 8.402,9.989 0,0" /></g></g></g></g><g
       id="g454"
       transform="matrix(3.9130434,0,0,3.9130434,-240.91357,-1247.4708)"><g
         id="g456" /><g
         id="g462"><g
           style="opacity:0.69999701"
           id="g464"
           clip-path="url(#clipPath458)"><g
             id="g466"
             transform="translate(187.1914,393.9551)"><path
               inkscape:connector-curvature="0"
               id="path468"
               style="fill:#8cc63f;fill-opacity:1;fill-rule:nonzero;stroke:none"
               d="M 0,0 C 0,0 -1.108,11.749 12.253,13.183 12.253,13.183 12.997,1.205 0,0" /></g></g></g></g><g
       id="g470"
       transform="matrix(3.9130434,0,0,3.9130434,-240.91357,-1247.4708)"><g
         id="g472" /><g
         id="g478"><g
           style="opacity:0.69999701"
           id="g480"
           clip-path="url(#clipPath474)"><g
             id="g482"
             transform="translate(187.1914,393.9551)"><path
               inkscape:connector-curvature="0"
               id="path484"
               style="fill:#39b54a;fill-opacity:1;fill-rule:nonzero;stroke:none"
               d="M 0,0 C 0,0 7.466,9.139 17.98,0.772 17.98,0.772 10.094,-8.273 0,0" /></g></g></g></g><g
       transform="matrix(3.9130434,0,0,3.9130434,511.29624,199.40008)"
       id="g490"
       style="fill:#a06c2c;fill-opacity:1"><path
         inkscape:connector-curvature="0"
         id="path492"
         style="fill:#a06c2c;fill-opacity:1;fill-rule:nonzero;stroke:none"
         d="m 0,0 c 0,0 -2.414,10.814 -0.734,17.313 1.68,6.501 4.19,7.832 3.963,8.832 -0.229,1 -1.495,0.552 -1.912,-0.363 -0.419,-0.912 -2.098,-2.871 -3.604,-2.526 -1.507,0.345 -1.81,6.563 -2.907,7.201 -1.095,0.64 -0.758,-2.236 -0.371,-4.731 0.389,-2.496 -1.706,-1.078 -2.978,1.929 -1.272,3.006 -2.057,2.145 -2.211,1.725 -0.155,-0.419 2.808,-5.795 2.578,-6.045 -0.23,-0.251 -3.976,4.227 -4.35,4.106 -0.373,-0.12 -1.012,-0.459 -0.123,-1.864 0.89,-1.406 3.716,-3.79 3.528,-4.177 -0.19,-0.388 -2.525,1.78 -3.388,1.843 -0.863,0.063 -0.533,-1.159 0.998,-2.295 1.532,-1.136 5.305,-2.412 5.358,-6.606 C -6.102,10.144 -7.066,0 -7.066,0 L 0,0 Z" /></g><text
       transform="scale(1.0232049,-0.97732136)"
       id="text6039"
       y="-119.71056"
       x="292.15295"
       style="font-style:normal;font-variant:normal;font-weight:normal;font-stretch:normal;font-size:89.46053314px;line-height:125%;font-family:Cinzel;-inkscape-font-specification:Cinzel;letter-spacing:0px;word-spacing:0px;fill:#ffffff;fill-opacity:0.90980393;stroke:none;stroke-width:1px;stroke-linecap:butt;stroke-linejoin:miter;stroke-opacity:1;"
       xml:space="preserve"><tspan
         style="font-style:normal;font-variant:normal;font-weight:bold;font-stretch:normal;font-family:Cinzel;-inkscape-font-specification:'Cinzel Bold';fill:#ffffff;fill-opacity:0.90980393;"
         y="-119.71056"
         x="292.15295"
         id="tspan6041">CBF</tspan></text>
<g
       transform="matrix(5.0915777,0,0,5.0916352,-2798.0991,-1716.9877)"
       id="g632"
       style="fill:#000000;fill-opacity:1;stroke:none;stroke-opacity:1" /><g
       transform="matrix(5.0915777,0,0,5.0916352,-1788.9738,-1793.6908)"
       id="g638"
       style="fill:#784421;fill-opacity:1;stroke:none;stroke-opacity:1"><g
         clip-path="url(#clipPath634)"
         id="g640"
         style="opacity:1;fill:#784421;fill-opacity:1;stroke:none;stroke-opacity:1"><g
           transform="translate(429.126,367.8516)"
           id="g642"
           style="fill:#784421;fill-opacity:1;stroke:none;stroke-opacity:0"><path
             d="m 0,0 c -34.09,0 -61.726,27.635 -61.726,61.725 0,34.09 27.636,61.726 61.726,61.726 34.09,0 61.727,-27.636 61.727,-61.726 C 61.727,27.635 34.09,0 0,0 m 0,132.43 c -39.049,0 -70.705,-31.656 -70.705,-70.705 0,-39.049 31.656,-70.704 70.705,-70.704 39.049,0 70.705,31.655 70.705,70.704 0,39.049 -31.656,70.705 -70.705,70.705"
             style="fill:#784421;fill-opacity:1;fill-rule:evenodd;stroke:none;stroke-opacity:1"
             id="path644" /></g></g></g></g></svg>